<svg width="937" height="245" viewBox="0 0 937 245" fill="none" xmlns="http://www.w3.org/2000/svg">
<path d="M18.0791 139.16C42.1846 115.055 81.2676 115.055 105.373 139.16C129.479 163.266 129.479 202.349 105.373 226.454C81.2676 250.56 42.1847 250.56 18.0791 226.454C-6.02638 202.349 -6.02638 163.266 18.0791 139.16ZM185.418 44.4121V137.391L31.1182 92.9775V0L185.418 44.4121Z" fill="white"/>
<path d="M886.785 233.294H854.492V92.8892H886.223V122.093C891.839 102.718 907.284 91.4851 926.941 91.4851H936.488V121.813H924.413C899.983 121.813 886.785 135.572 886.785 161.126V233.294Z" fill="white"/>
<path d="M765.407 236.102C725.251 236.102 696.608 205.775 696.608 163.091C696.608 120.408 725.251 90.0808 765.407 90.0808C805.844 90.0808 834.486 120.408 834.486 163.091C834.486 205.775 805.844 236.102 765.407 236.102ZM764.284 209.706H766.53C787.591 209.706 801.912 192.577 801.912 163.091C801.912 133.606 787.591 116.477 766.53 116.477H764.284C743.504 116.477 728.902 133.606 728.902 163.091C728.902 192.577 743.504 209.706 764.284 209.706Z" fill="white"/>
<path d="M584.837 233.294H552.544V92.8889H584.837V113.107C593.261 99.6284 608.425 90.0808 628.363 90.0808C661.498 90.0808 678.066 111.422 678.066 141.75V233.294H645.773V146.524C645.773 127.709 637.349 116.477 620.781 116.477H618.534C600.563 116.477 584.837 132.202 584.837 154.948V233.294Z" fill="white"/>
<path d="M469.994 236.102C434.893 236.102 403.442 210.548 403.442 163.091C403.442 118.162 431.243 90.0808 469.433 90.0808C509.308 90.0808 531.773 118.443 531.773 157.194C531.773 161.968 531.492 166.742 531.211 171.516H434.893C436.578 196.227 453.988 209.706 469.994 209.706H472.241C486.001 209.706 496.391 201.843 499.199 190.049H531.211C525.314 218.13 502.288 236.102 469.994 236.102ZM435.736 146.524H500.041C498.918 126.305 485.439 116.477 469.994 116.477H467.748C452.584 116.477 438.263 126.025 435.736 146.524Z" fill="white"/>
<path d="M362.074 233.294H328.377V66.7735H259.578V36.7268H431.153V66.7735H362.074V233.294Z" fill="white"/>
</svg>
