<svg width="939" height="245" viewBox="0 0 939 245" fill="none" xmlns="http://www.w3.org/2000/svg">
<path d="M18.0791 139.16C42.1846 115.055 81.2676 115.055 105.373 139.16C129.479 163.266 129.479 202.349 105.373 226.454C81.2676 250.56 42.1847 250.56 18.0791 226.454C-6.02638 202.349 -6.02638 163.266 18.0791 139.16ZM185.418 44.4121V137.391L31.1182 92.9775V0L185.418 44.4121Z" fill="black"/>
<path d="M886.784 228.474H854.491V88.0686H886.223V117.273C891.839 97.897 907.284 86.6646 926.94 86.6646H936.488V116.992H924.413C899.983 116.992 886.784 130.752 886.784 156.306V228.474Z" fill="black"/>
<path d="M765.407 231.282C725.251 231.282 696.608 200.954 696.608 158.271C696.608 115.588 725.251 85.2603 765.407 85.2603C805.844 85.2603 834.486 115.588 834.486 158.271C834.486 200.954 805.844 231.282 765.407 231.282ZM764.284 204.885H766.53C787.591 204.885 801.912 187.756 801.912 158.271C801.912 128.786 787.591 111.656 766.53 111.656H764.284C743.504 111.656 728.902 128.786 728.902 158.271C728.902 187.756 743.504 204.885 764.284 204.885Z" fill="black"/>
<path d="M584.837 228.474H552.544V88.0684H584.837V108.287C593.261 94.8078 608.425 85.2603 628.363 85.2603C661.498 85.2603 678.066 106.602 678.066 136.929V228.474H645.773V141.703C645.773 122.889 637.349 111.656 620.781 111.656H618.534C600.563 111.656 584.837 127.382 584.837 150.127V228.474Z" fill="black"/>
<path d="M469.994 231.282C434.893 231.282 403.442 205.728 403.442 158.271C403.442 113.341 431.243 85.2603 469.433 85.2603C509.308 85.2603 531.773 113.622 531.773 152.374C531.773 157.148 531.492 161.921 531.211 166.695H434.893C436.578 191.407 453.988 204.885 469.994 204.885H472.241C486.001 204.885 496.391 197.023 499.199 185.229H531.211C525.314 213.31 502.288 231.282 469.994 231.282ZM435.736 141.703H500.041C498.918 121.485 485.439 111.656 469.994 111.656H467.748C452.584 111.656 438.263 121.204 435.736 141.703Z" fill="black"/>
<path d="M362.074 228.473H328.377V61.9529H259.578V31.9062H431.153V61.9529H362.074V228.473Z" fill="black"/>
</svg>
