<svg width="913" height="294" viewBox="0 0 913 294" fill="none" xmlns="http://www.w3.org/2000/svg">
<path d="M845.749 290.214H802.203V100.886H844.991V140.266C852.564 114.139 873.39 98.9928 899.896 98.9928H912.77V139.888H896.488C863.545 139.888 845.749 158.442 845.749 192.899V290.214Z" fill="black"/>
<path d="M682.078 294C627.93 294 589.308 253.105 589.308 195.55C589.308 137.994 627.93 97.0994 682.078 97.0994C736.604 97.0994 775.227 137.994 775.227 195.55C775.227 253.105 736.604 294 682.078 294ZM680.564 258.406H683.593C711.992 258.406 731.303 235.309 731.303 195.55C731.303 155.791 711.992 132.693 683.593 132.693H680.564C652.543 132.693 632.853 155.791 632.853 195.55C632.853 235.309 652.543 258.406 680.564 258.406Z" fill="black"/>
<path d="M438.591 290.214H395.046V100.886H438.591V128.149C449.951 109.974 470.398 97.0994 497.283 97.0994C541.964 97.0994 564.305 125.877 564.305 166.772V290.214H520.759V173.209C520.759 147.839 509.4 132.693 487.059 132.693H484.03C459.796 132.693 438.591 153.898 438.591 184.569V290.214Z" fill="black"/>
<path d="M283.732 294C236.401 294 193.991 259.542 193.991 195.55C193.991 134.965 231.478 97.0994 282.975 97.0994C336.744 97.0994 367.037 135.344 367.037 187.598C367.037 194.035 366.658 200.472 366.279 206.909H236.401C238.673 240.231 262.149 258.406 283.732 258.406H286.762C305.316 258.406 319.326 247.804 323.113 231.901H366.279C358.328 269.766 327.278 294 283.732 294ZM237.537 173.209H324.249C322.734 145.946 304.559 132.693 283.732 132.693H280.703C260.256 132.693 240.944 145.567 237.537 173.209Z" fill="black"/>
<path d="M138.209 290.213H92.7705V65.671H0V25.1549H231.358V65.671H138.209V290.213Z" fill="black"/>
</svg>
