<svg width="913" height="307" viewBox="0 0 913 307" fill="none" xmlns="http://www.w3.org/2000/svg">
<path d="M845.749 303.214H802.203V113.886H844.991V153.266C852.564 127.139 873.39 111.993 899.896 111.993H912.77V152.888H896.488C863.545 152.888 845.749 171.442 845.749 205.899V303.214Z" fill="white"/>
<path d="M682.078 307C627.93 307 589.308 266.105 589.308 208.55C589.308 150.994 627.93 110.099 682.078 110.099C736.604 110.099 775.227 150.994 775.227 208.55C775.227 266.105 736.604 307 682.078 307ZM680.564 271.406H683.593C711.992 271.406 731.303 248.309 731.303 208.55C731.303 168.791 711.992 145.693 683.593 145.693H680.564C652.543 145.693 632.853 168.791 632.853 208.55C632.853 248.309 652.543 271.406 680.564 271.406Z" fill="white"/>
<path d="M438.591 303.214H395.046V113.886H438.591V141.149C449.951 122.974 470.398 110.099 497.283 110.099C541.964 110.099 564.305 138.877 564.305 179.772V303.214H520.759V186.209C520.759 160.839 509.4 145.693 487.059 145.693H484.03C459.796 145.693 438.591 166.898 438.591 197.569V303.214Z" fill="white"/>
<path d="M283.732 307C236.401 307 193.991 272.542 193.991 208.55C193.991 147.965 231.478 110.099 282.975 110.099C336.744 110.099 367.037 148.344 367.037 200.598C367.037 207.035 366.658 213.472 366.279 219.909H236.401C238.673 253.231 262.149 271.406 283.732 271.406H286.762C305.316 271.406 319.326 260.804 323.113 244.901H366.279C358.328 282.766 327.278 307 283.732 307ZM237.537 186.209H324.249C322.734 158.946 304.559 145.693 283.732 145.693H280.703C260.256 145.693 240.944 158.567 237.537 186.209Z" fill="white"/>
<path d="M138.209 303.213H92.7705V78.671H0V38.1549H231.358V78.671H138.209V303.213Z" fill="white"/>
</svg>
