<svg width="551" height="144" viewBox="0 0 551 144" fill="none" xmlns="http://www.w3.org/2000/svg">
<path d="M10.6183 81.7334C24.7763 67.5755 47.7309 67.5755 61.8888 81.7334C76.0467 95.8913 76.0467 118.846 61.8888 133.004C47.7309 147.162 24.7762 147.162 10.6183 133.004C-3.53953 118.846 -3.53935 95.8913 10.6183 81.7334ZM108.902 26.085V80.6934L18.2765 54.6084V0L108.902 26.085Z" fill="white"/>
<path d="M520.837 134.19H501.87V51.7255H520.507V68.8781C523.806 57.498 532.877 50.9009 544.422 50.9009H550.03V68.7132H542.938C528.589 68.7132 520.837 76.7947 520.837 91.8032V134.19Z" fill="white"/>
<path d="M449.548 135.839C425.963 135.839 409.14 118.027 409.14 92.9577C409.14 67.8885 425.963 50.0762 449.548 50.0762C473.298 50.0762 490.12 67.8885 490.12 92.9577C490.12 118.027 473.298 135.839 449.548 135.839ZM448.888 120.336H450.208C462.577 120.336 470.989 110.275 470.989 92.9577C470.989 75.6401 462.577 65.5795 450.208 65.5795H448.888C436.684 65.5795 428.107 75.6401 428.107 92.9577C428.107 110.275 436.684 120.336 448.888 120.336Z" fill="white"/>
<path d="M343.494 134.19H324.527V51.7255H343.494V63.6003C348.442 55.6838 357.348 50.0762 369.058 50.0762C388.52 50.0762 398.25 62.6108 398.25 80.4231V134.19H379.284V83.2269C379.284 72.1766 374.336 65.5795 364.605 65.5795H363.285C352.73 65.5795 343.494 74.8155 343.494 88.1747V134.19Z" fill="white"/>
<path d="M276.043 135.839C255.427 135.839 236.955 120.831 236.955 92.9577C236.955 66.5691 253.283 50.0762 275.713 50.0762C299.133 50.0762 312.327 66.734 312.327 89.4942C312.327 92.2979 312.162 95.1017 311.997 97.9055H255.427C256.416 112.419 266.642 120.336 276.043 120.336H277.362C285.444 120.336 291.546 115.718 293.195 108.791H311.997C308.534 125.284 295.01 135.839 276.043 135.839ZM255.922 83.2269H293.69C293.031 71.352 285.114 65.5795 276.043 65.5795H274.723C265.817 65.5795 257.406 71.1871 255.922 83.2269Z" fill="white"/>
<path d="M212.658 134.19H192.867V36.387H152.459V18.7396H253.231V36.387H212.658V134.19Z" fill="white"/>
</svg>
